<?xml version="1.0" encoding="UTF-8"?>
<svg id="Capa_2" data-name="Capa 2" xmlns="http://www.w3.org/2000/svg" viewBox="0 0 815.22 644.2">
  <defs>
    <style>
      .cls-1 {
        fill: #edebdd;
      }
    </style>
  </defs>
  <g id="Capa_1-2" data-name="Capa 1">
    <g>
      <path class="cls-1" d="M99.24,418.1c.09-42.16.38-84.31.09-126.47-.05-7.66-1.01-15.82-7.44-21.67-1.86-1.69-1.63-3.85-.91-5.8.79-2.15,2.94-2.04,4.84-2.04,11.95-.01,23.91-.04,35.86,0,2.05,0,4.47-.29,5.24,2.36.68,2.32.32,4.57-1.58,6.33-5.57,5.16-7.21,11.45-7.13,19.04.37,33.55.25,67.11.3,100.67,0,3.39,0,6.78-.01,10.17,0,11.73,0,23.46-.01,35.2,0,6.33.01,12.66.02,18.99,0,7.52,0,15.05,0,22.57,0,2.56.01,5.12.02,7.68.14,8.06-.97,16.11.85,24.2.85,3.76,2.94,6.31,5.12,8.99,1.62,1.99,3.57,3.8,2.28,6.57-1.36,2.9-4.08,3.03-6.93,3-11.29-.1-22.58,0-33.87-.1-2.11-.02-4.29.59-5.91-2.13-2-3.36,1.17-4.35,2.05-6.38,0,0,0-.1,0-.1.8-.76,1.6-1.52,2.4-2.29,3.43-6.34,1.02-12.17-1.58-17.98-1.64-1.48.29-3.13-.45-5.01-5.95-15.02-11.53-30.19-17.23-45.31-1.59-4.24-3.18-8.48-4.77-12.71-10.11-28.44-20.22-56.88-30.33-85.32-1.39,7.08-1.4,13.77-1.39,20.46.1,43.85.2,87.7.3,131.55.32,7.51,3.04,13.93,8.62,19.07v.02c-.43,1.25-1.81,2.25-.97,3.83-.36.74-.72,1.47-1.08,2.21-12.56.02-25.12-.08-37.68.13-3.14.05-5.63-.82-7.97-2.67.02-.73.05-1.46.07-2.2,3.56-3.95,7.62-7.72,8.54-13.22,1.07-6.47,2.01-13.02,1.31-19.63.12-20.98.33-41.95.32-62.93-.02-45.54-.05-91.08-.34-136.62-.05-7.44-1.03-15.03-7.32-20.4-1.75-1.5-1.91-3.35-1.1-5.04.78-1.62,2.06-3.04,4.36-3.02,12.38.06,24.76,0,37.14.03,1.93,0,3.91.83,4.53,2.6.66,1.92.79,4.55-1.39,5.67-4.65,2.39-3.69,6.07-2.03,9.28,6.2,11.99,9.11,25.14,13.76,37.67,7.72,20.79,15.33,41.62,22.89,62.47,2.64,7.29,4.98,14.69,7.45,22.03,2.94,7.45,5.88,14.91,8.82,22.36.44,1.36.48,2.98,2.27,3.66v-6.93c-.01-.94-.03-1.87-.04-2.81Z"/>
      <path class="cls-1" d="M423.05,528.11c-15.24-.11-30.49-.18-45.73-.36-2.28-.03-4.92,1.01-6.37-2.28-1.43-3.25.82-4.34,2.58-6.03,3.27-3.13,3.86-7.39,4.45-11.6,1.49-2.26,1.21-4.81,1.21-7.32-.03-70.47-.03-140.93-.16-211.4-.01-6.04-.57-12.15-5.2-16.94-1.99-2.06-3.93-4.11-2.72-7.61,1.35-3.92,4.59-1.74,6.84-2.64,17.4.06,34.81-.11,52.21.28,6.98.16,14.14.59,20.6,3.97,17.79,9.32,26.3,24.72,26.44,44.13.41,56.84.44,113.68-.02,170.52-.15,18.14-8.72,32.67-24.55,42.01-7.71,4.55-16.38,6.84-25.52,6.49-1.23-.79-2.33-2-4.04-1.21ZM430.82,292.23c-3.34-.67-6.68-.76-10.02-.03-3.08-2.62-6.8-1.2-10.23-1.64-3.06-.39-3.88.92-3.86,3.9.17,34.13.22,68.26.3,102.38,0,10.96,0,21.92,0,32.88.01,23.04.02,46.08.03,69.13,9.93,2.2,19.85,2.04,29.78-.05,8.09-3.01,11.86-8.77,11.91-19.18.13-26.41.08-52.83.1-79.24.01-29.98.05-59.96,0-89.94-.02-10.2-4.66-17.05-12.46-18.95-.99.23-1.98.45-2.96.68-.86.02-1.71.04-2.57.06Z"/>
      <path class="cls-1" d="M314.38,513.55c.98,1.6,1.68,3.5,3,4.74,2.22,2.09,3.35,4.58,2.38,7.26-1.04,2.89-4.15,2.32-6.54,2.33-11.52.06-23.05,0-34.57-.08-2-.01-4.42.44-5.2-2.29-.66-2.33,1.3-3.2,2.68-4.45,7.47-6.78,6.69-15.83,5.83-24.41-1.57-15.76-3.94-31.44-6.05-47.14-.27-2.02-.99-3.97-1.5-5.96.71-3.91.59-8.03-2.17-10.77-.91-.9-5.02.35-6.62,2.92-.37.06-.73.18-1.06.36-2.12-.2-3.86.52-5.2,2.18-.98.23-2.18.1-2.54,1.44,0,0,.01-.3.01-.3-7.63,3.35-15.25,6.7-22.88,10.03-1.19.52-2.02,1.08-2.22,2.62-2.06,16.13-4.23,32.25-6.36,48.37-1.1,8.37,1.63,15.58,6.71,22.09.83,1.07,2.59,1.84,1.85,3.65-.82,2.02-2.73,1.63-4.35,1.63-12.17.03-24.35.02-36.52.02-2.1,0-4.36.19-5.06-2.53-.53-2.07-.71-4,1.21-5.7,7.88-6.99,8.32-16.86,9.82-26.25,2.17-13.61,4.23-27.25,6.1-40.9,1.03-7.52,1.6-15.11,2.37-22.67,1.47-5.42,3.01-10.83,2.66-16.55,1.62-3.98,1.46-8.2,1.75-12.37,2.26-3.19.09-6.85,1.07-10.18.34-.7.88-1.38.99-2.11,1.34-9.18,2.71-18.36,3.87-27.56.93-7.32,1.58-14.68,2.36-22.02,1.88-6.12,3.05-12.35,3.04-18.77,2.02-14.06,4.67-28.05,4.86-42.33.04-2.77-1.08-4.87-2.99-6.59-1.87-1.69-2.98-3.7-1.92-6.03,1.12-2.48,3.34-3.23,6.17-3.22,13.79.09,27.58-.05,41.37-.1,3.74.07,7.48.15,11.23.22,2.25.04,4.78-.46,5.9,2.29,1.08,2.64.25,5.15-1.8,6.77-3.96,3.14-4.35,7.27-4.09,11.76.18,3.12.28,6.24.42,9.36-.04,1.86-.57,3.88-.05,5.57,5.84,19.1,3.79,39.37,8.78,58.58-.68,4.89,1.04,9.43,2.04,14.07,2.04,17.4,3.51,34.86,6.4,52.17,2.38,14.25,3.7,28.67,5.23,43.05.21,1.95,1.25,3.49,1.41,5.33-.92,4.04.92,7.8,1.37,11.68,1.22,10.47,1.33,21.26,6.79,30.81ZM252.07,313.72c-.94,3.54-2.9,6.83-2.69,10.66.54,9.77-2.94,19.07-3.11,28.83-.16,9.04-3.42,17.85-3.34,27.03-2,2.41-.93,5.2-.96,7.86-2.19,7.35-2.84,14.97-3.99,22.5-.72,4.69.72,6.85,5.85,4.36,6.69-3.26,13.4-6.6,20.37-9.15,5.5-2.01,5.59-5.29,4.86-10.18-2.6-17.36-4.51-34.81-7.2-52.15-1.22-7.86-1.12-15.92-3.5-23.6.35-9.41-2.14-18.49-3.67-27.76-.87,7.21-1.74,14.41-2.61,21.62Z"/>
      <path class="cls-1" d="M628.55,345.41c.42,13.29,2.98,26.32,4.63,39.46,1.62,12.9,2.9,25.85,4.31,38.78.97,8.96,3.54,17.62,4.2,26.71.9,12.4,2.81,24.76,4.91,37.02.97,5.7.64,11.46,1.94,17.17,1.16,5.08,3.09,9.35,6.77,12.8,2.69,2.53,3.06,5.65,2.04,8.62-1.08,3.18-4.36,1.75-6.67,1.78-10.92.14-21.84.09-32.76.04-1.98,0-4.46.73-5.41-1.93-.75-2.11.8-3.26,2.13-4.73,5.78-6.45,7.36-13.88,5.83-22.53-1.9-10.73-2.84-21.64-4.18-32.47-1.32-10.63-2.67-21.26-3.88-31.91-.31-2.7-1.73-2.48-3.43-1.67-11.97,5.67-24.04,11.11-36.4,15.9-2.83,1.1-3.03,3.49-3.19,6.16-.94,16.07-3.52,31.94-6.12,47.8-.82,5.01.76,9.78,3.18,14.2.39.71,1.29,1.13,1.69,1.83,1.49,2.64,4.79,5.38,3.43,8.17-1.32,2.69-5.3,1.06-8.06,1.1-10.71.17-21.42.08-32.13.06-2.12,0-4.03-.11-5.08-2.68-.88-2.16.03-3.88,1.13-4.98,8.24-8.25,8.84-19.24,10.56-29.66,2.67-16.11,4.7-32.32,6.91-48.5,1.96-14.34,3.82-28.69,5.64-43.04.78-6.14,3.17-12.06,2.46-18.4,1.36-1.5,1.23-3.33,1.11-5.15,1.35-8.91,2.81-17.81,4.01-26.75,1.33-9.91,2.42-19.85,3.62-29.77.38-2.58,1.81-4.99,1.22-7.72.89-5.24,2.19-10.45,2.57-15.73.57-8.04,4.94-16.56-2.25-23.9-1.93-3.92-3.62-7.78,2.46-9.66,17.13.08,34.25.14,51.38.25,2.02.01,3.96.07,6.04.87,3.69,1.42,4.09,4.54,2.26,6.35-8.81,8.69-4.98,18.34-2.91,27.95.06.9.13,1.79.19,2.69-1.5,7.35,1.3,14.22,2.44,21.27-.81,3.93,1.2,7.55,1.23,11.39-.28,2.23-.41,4.42,1.28,6.24-.22,2.27-.51,4.54.92,6.57ZM585.8,347.64c-1.11,3.31-1.4,6.71-1.15,10.17-.1,2.57-2.76,4.03-2.62,6.85.74,15.63-5.88,30.42-5.29,46.12.21,5.47.39,6.34,5.56,4.14,5.93-2.52,11.56-5.89,17.67-7.8,5.91-1.85,8.38-4.7,7.46-10.98-2-13.58-3.63-27.21-5.41-40.82.11-1.8-.01-3.55-1.02-5.13-2.23-18-4.47-35.99-6.7-53.99-5.16,10.15-3.88,20.92-5.91,31.2-1.31,6.67-2.46,13.39-2.58,20.23Z"/>
      <path class="cls-1" d="M336.39,234.13c-1.78-2.43-2.45-4.99.19-7.12,2.49-2.01,2.85-4.85,3.7-7.55,3.68-1.8,3.24-5.54,3.76-8.63,1.36-8.13,2.37-16.32,3.52-24.48,1.87-13.38,3.91-26.74,5.58-40.15,1.85-14.8,4.59-29.45,6.04-44.33,1.29-13.27,4.02-26.41,6.05-39.61.22-1.42-.04-2.92-.08-4.38.48-2.96.97-5.93,1.45-8.89,1.07-9.6,3.62-19,3.86-28.72.11-4.62,0-8.97-3.94-12.48-2.68-2.39-1.19-4.81,1.31-6.63,13.98,0,27.97-.06,41.95.03,4.34.03,8.78-.82,13.01.95.06,3.13.16,6.13-2.8,8.42-1.68,1.3-1.85,3.6-1.83,5.78.07,7.22.42,14.39,2.46,21.38.54,6.29-.46,12.71,1.63,18.87.61,5.89.76,11.88,1.92,17.66,1.87,9.33,3.01,18.74,4.18,28.16,1.81,14.5,3.59,29.01,5.43,43.51,2.35,18.48,4.43,37,7.29,55.41,1.43,9.18,1.06,19.19,8.65,26.52,2.03,1.96,2.21,4.42.04,6.64-11.34.03-22.69.06-34.03.09-.83,0-1.66.02-2.49.02-.44-.04-.88-.08-1.32-.12-1.89-1.94-1.44-3.58.45-5.3,6.32-5.75,6.69-13.28,5.72-20.95-2.3-18.22-5.13-36.38-7.06-54.64-.39-3.71-.9-3.8-3.54-2.53-5.25,2.53-10.46,5.14-15.68,7.72-15.19,4.02-17.75,6.75-18.81,20.06-1.24,10-3.18,19.88-4.41,29.9-.94,7.61.16,13.85,4.98,19.46,1.88,2.19,2.89,3.98.59,6.34-.44,0-.87,0-1.31,0-.84.04-1.68.08-2.53.13-11.31-.18-22.62-.36-33.93-.55ZM383.48,104.46c-1.28,8.07-2.79,16.12-3.73,24.23-.33,2.87-2.6,6.18-.55,8.44.79.87,4.76-1.13,7.27-1.85.15-.04.22-.34.33-.52,4.7-2.47,9.4-4.95,14.09-7.42.33,0,.64-.11.91-.3,1.27-.5,2.55-1,3.82-1.51,1.87-.76,1.4-2.36,1.22-3.74-2.9-22.7-5.79-45.41-8.79-68.1-.87-6.59-2.07-13.14-3.14-19.81-2.65.79-2.5,3.1-2.67,4.22-2.35,15.35-4.37,30.76-6.47,46.15.05.85.11,1.7.16,2.55-.1.82-.21,1.64-.31,2.46-.39,2.99-.78,5.98-1.17,8.97-.07,1.23-.15,2.47-.22,3.7-.25.84-.5,1.67-.74,2.51Z"/>
      <path class="cls-1" d="M643.81,234.53c-4.72-1.82-3.04-4.95-.92-7.2,6.09-6.46,7.34-14.56,8.51-22.77,1.45-10.22,2.98-20.42,4.37-30.65,2.39-17.58,4.68-35.17,7.06-52.75,1.65-12.23,3.39-24.44,5.08-36.66,1.79-3.3,1.09-6.84.95-10.32,2.74-8.53,3.59-17.4,4.47-26.23,1.03-10.27,3.64-20.37,3.26-30.79-.1-2.88.02-5.46-2.25-8.05-2.09-2.38-3.68-6.06.97-8.3,17.64.1,35.28.21,52.92.31,1.9,2.47,2.07,5.15-.14,7.28-6.07,5.83-3.7,12.63-2.64,19.34.7,3.28-.22,6.81,1.54,9.93.09,3.13-.29,6.35.34,9.36,3.19,15.19,3.75,30.71,6.01,46.02,1.83,12.46,1.95,25.22,4.39,37.54,4.41,22.24,5.36,44.91,9.31,67.19,1.87,10.57,1.76,21.71,10.11,29.99,2.34,2.32,0,4.19,0,6.26-13,.13-26,.27-39.01.4-1.94-1.67-1.4-3.6.14-4.84,7.12-5.76,6.35-13.69,6.04-21.44-.16-3.89-.88-7.75-1.34-11.62-1.99-14.4-3.96-28.81-5.98-43.21-.18-1.27,0-3.98-1.88-2.9-3.87,2.22-9.3,1.18-11.93,5.78-6.71,3.04-13.43,6.09-20.15,9.12-2,.9-2.35,2.63-2.65,4.6-2.06,13.79-4.28,27.55-6.3,41.34-.9,6.16.86,11.81,4.79,16.52,1.68,2.01,3.09,3.73,2.71,6.43-7.12.14-14.24.29-21.37.43-.86,0-1.72,0-2.58,0-1.66,0-3.32,0-4.98-.01-.84,0-1.67-.02-2.51-.03-2.11-.02-4.22-.04-6.33-.07ZM705.51,128.22c2.95-1.59,8.5-.73,7.6-6.12-1.34-7.98-.63-16.28-3.59-24-.44-1.12-1.35-2.28-1.25-3.35,1.1-11.22-2.36-22.02-2.85-33.08-1.33-9.65-2.66-19.3-4-28.96-5.18,15.74-5.97,31.9-8.24,47.82-2.71,18.77-5.41,37.54-8.36,57.96,7.88-3.92,14.29-7.09,20.69-10.27Z"/>
      <path class="cls-1" d="M91.12,1.27c7.77.64,17.71-1.34,27.44.92,20.56,4.76,35.82,23.47,36.15,44.85.18,11.76.09,23.52.05,35.29-.07,19.69-9.35,33.69-26.65,42.58-10.62,5.46-21.66,10.02-32.31,15.45-3.78,1.93-4.12,3.86-4.11,7.11.05,19.11.03,38.23.04,57.34,0,4.61-1.41,9.21.39,13.82,1.28,3.29,2.64,6.4,5.56,8.63,1.64,1.26,2.35,3.19,1.55,5.04-.76,1.76-2.4,2.85-4.53,2.85-10.71-.03-21.43.15-32.13-.15-4.41-.12-5.97-3.55-3.09-6.58,5.01-5.28,5.84-11.38,6.15-18.4,2.69-61.02.38-122.07.99-183.09.07-6.64-.08-13.93-6.16-18.87-1.38-1.12-2.28-2.82-1.79-4.16.77-2.1,2.9-2.67,5.21-2.64,8.4.08,16.8.03,27.26.03ZM91.74,69.41h-.03c0,13.2.07,26.4-.05,39.59-.03,3.54.52,5.3,4.5,3.37,7.42-3.62,15.02-6.86,22.36-10.62,7-3.59,11.12-9.46,11.22-17.49.16-12.36.37-24.74-.14-37.07-.3-7.15-3.23-12.95-9.9-17.44-7.61-5.13-15.55-3-23.39-3.82-3.6-.38-4.7.93-4.65,4.53.19,12.99.07,25.98.07,38.97Z"/>
      <path class="cls-1" d="M718.2,330.04c.2-15.8,1.36-31.64-1.28-47.35-.76-4.5-2.38-8.72-5.74-11.99-1.89-1.84-2.32-3.96-1.4-6.27.95-2.37,3.2-2.33,5.32-2.36,6.89-.08,13.77-.17,20.66-.26,2.55.02,5.1.04,7.65.07,1.66.06,3.34.26,4.99.16,2.82-.16,5.49.02,7.07,2.77,1.75,3.04-.52,4.99-2.13,7.08-3.4,2.62-4.23,6.41-4.76,10.35-2.43,3.36-1.44,7.26-1.47,10.89-.14,17.38-.06,34.77-.02,52.16.07,26.81.17,53.61.26,80.42,0,1.79,0,3.59,0,5.38-.48,22.59-.55,45.19.01,67.78,4.93,2.91,10.33,1.24,15.42,1.18,7.3-.09,14.78,1.74,21.95-1.17l.21-.09c3.71-.03,6.05-2.93,6.77-5.49.93-3.32,2.27-1.53,3.68-1.32l.08.12c4.86,3.74,9.51,7.71,15.11,10.47,2.38,1.17,6.86,3.14,3.29,6.9-7.21,7.6-14.12,15.88-25.24,18.15-24.31.07-48.63.21-72.94.18-6.03,0-7.58-2.79-3.76-7.65,5.81-7.41,6.42-15.79,6.39-24.56-.11-34.16-.14-68.32-.2-102.48,0-2.13,0-4.25,0-6.38.54-17.2.58-34.4.05-51.61,0-1.69,0-3.38,0-5.07Z"/>
      <path class="cls-1" d="M524.29.89h73.85c-9.81,30.12-19.28,59.21-28.75,88.29-4.82,12.86-9.14,25.88-12.67,39.16-10.28,24.84-17.38,50.74-25.43,76.32-.56,1.89-3.68,5.29.1,5.36,11.52.22,23.13,1.55,34.6-.79,2.4-.12,4.8-.25,7.2-.37,5.18-.16,8.36-4.4,12.71-6.25,2.65.09,5.4.05,5.22,3.92-.03,7.34-.38,14.69.03,22,.29,5.14-1.38,7.46-6.55,6.99-3.78-.65-7.55-.34-11.33.02-2.52-.02-5.03-.04-7.55-.05-11.76-.4-23.52-.67-35.28.11-1.26-.02-2.53-.05-3.79-.07-8.78-.11-17.56-.45-26.33-.24-4.94.12-5.76-1.5-4.01-5.79,1.53-3.75,3.7-7.58,4.47-11.23,2.85-13.46,8.33-26,12.25-39.07,4.42-14.72,10.41-28.96,13.89-43.98,1.9-1.42,1.73-3.63,2.16-5.62.14-.3.21-.62.22-.96,2.01-2.14,2.15-4.93,2.62-7.61,3.56-10.53,7.12-21.06,10.67-31.59.72-2.1,2.2-3.98,1.76-6.4,2.56-7.46,5.12-14.92,7.67-22.38,1.78-3.32,2.66-6.92,3.39-10.58,2.1-5.79,3.98-11.68,6.35-17.36,2.47-5.94,2.02-6.95-4.22-6.79-1.45.04-2.89.34-4.34.52l-3.88-.11c-9.69-.49-19.37-.65-28.94,1.42-.81-.22-1.29.1-1.5.89h0c-2.65.84-5.61,1.12-7.05,4.06-2.22,2.2-4.34,1.17-6.47-.17-.04-9.38.07-18.77-.19-28.14-.09-3.22,1.83-3.15,3.87-3.41,2.86-.33,5.72-.66,8.58-.99,1.99,2.16,4.42.93,6.7.89Z"/>
      <path class="cls-1" d="M285.97,211.47c1.33.85,2.65,1.71,3.98,2.56,1.17,1.48.83,3.16.66,4.82,0,0-.04.02-.04.02-4.56,4.25-9.12,8.51-13.69,12.76-6.98,3.23-14.42,3.56-21.93,3.55-16.34-.02-32.69.03-49.03-.01-2.43,0-5.26.57-6.69-2.25-1.38-2.74.24-4.73,2-6.68,4.46-4.93,4.01-11.08,4.07-17.08,2-1.89,1.12-4.36,1.12-6.54.06-55.16.06-110.32.01-165.48,0-1.97.84-4.24-1.14-5.88.02-3.15.34-6.33,0-9.44-.52-4.7-1.16-9.43-5.28-12.79-1.63-1.33-2.75-3.34-2.02-5.62.86-2.67,3.26-2.17,5.3-2.16,11.55.02,23.1.07,34.64.11-.03,2.29-.06,4.57-.08,6.86-2.21,1.81-3.47,4.32-4.84,6.73-2.98,14.21-1.47,28.56-1.35,42.87,0,8.4.01,16.79.02,25.19-.54,2.11-.53,4.22,0,6.34-.19.41-.19.82,0,1.22l-.1,2.51c0,16.82,0,33.64,0,50.46.01.82.03,1.64.04,2.47,0,4.22,0,8.44,0,12.66-.64,7.55-.48,15.1.05,22.65,0,.43-.02.86-.02,1.28-.57,2.08-.56,4.17-.05,6.26.11,6.88-1.28,13.81.72,20.62,10.45,1.35,20.9,1.44,31.33-.2,4.89-5.35,9.93-9.53,16.57-2.31,1.91,1.49,3.82,2.99,5.74,4.48Z"/>
      <g>
        <path class="cls-1" d="M182.85,558.51c-3.11,8.25-.43,16.55.41,24.64,1.78,17.15,4.76,34.18,7.24,51.26.12.83.13,1.67.24,2.49.29,2.13,4.26,4.49.75,6.21-3.29,1.62-7.4.78-11.1.22-.97-.15-1.02-1.39-.5-2.56,3.71-8.45-.3-16.86-.27-25.3,0-1.11-.47-1.82-1.76-2.11-3.65-.82-11.98,4.69-12.55,8.51-.99,6.52-3.77,12.99-.21,19.63.72,1.34-.37,2.22-2,2.17-2.09-.07-4.19.04-6.29.03-4.25-.02-6.09-.3-3.38-5.66,2.5-4.94,3.31-11.18,3.3-16.85-.03-11.06,3.87-21.48,4.3-32.39.38-9.71,5.17-19.04,2.34-29.03-.39-1.37,1.24-1.35,2.11-1.75,5.79.16,11.58.32,17.37.48ZM173.28,574.44c-3.99,10.25-3.79,21.09-6.13,32.03,4.21-.52,9.22-.17,9.58-4.68.73-9.17-1.09-18.29-3.45-27.36Z"/>
        <path class="cls-1" d="M654.44,558.05c-.26,12.42,1.77,24.64,3.74,36.82,2.41,14.91,1.56,30.34,7.17,44.73.93,2.38-.32,3.75-2.45,3.98-2.7.29-5.45.1-8.18.08-1.59-.01-2.75-1.23-1.9-2.35,4.74-6.23-.1-12.57.31-18.85.2-3.03-1.1-6.44-1.22-9.78-13.4,3-18.62,11.52-14.89,25.93,1.3,5.03-.19,5.39-4.09,5.11-1.46-.11-2.95.06-4.41-.04-3.51-.26-5.33-1.55-2.72-5.08,3.73-5.03,2.55-11.18,3.55-16.75,2.76-15.39,4.23-31.02,6.95-46.42,1.05-5.93-.18-11.69.53-17.49,5.87.75,11.75.68,17.63.11ZM644.84,570.94c-1.48,10.32-3.03,20.63-4.36,30.96-.22,1.74-1,4.92,2.54,4.27,2.9-.53,7.51-1.09,7.04-4.8-1.28-10.13-1.23-20.47-5.23-30.43Z"/>
        <path class="cls-1" d="M471.49,642.33c-4.11.12-8.21.25-12.32.37-2.44-1.68.42-3.22.13-4.84,1.53-5.04,2.81-10.11,2.26-15.46,3.35-7.58,2.56-15.87,3.94-23.78,2.34-13.42,4.22-26.95,5.02-40.59,5.84.08,11.68.15,17.53.23.57,2.97-1.93,5.31-1.44,8.41,2.16,13.44,4.05,26.93,6.12,40.39,1.69,11.05,1.28,22.46,5.59,33.07.51,1.25-.01,1.66-1.12,2.29-3.53,2-7.26,1.36-10.93,1.02-.93-.09-2.3-1.25-1.25-2.82,5.43-8.07-.26-16.39.48-24.58.07-.74-1-1.91-1.82-2.36-2.15-1.16-13.08,3.41-12.91,5.75.53,7.63-4.66,15.47.71,22.9ZM478.79,568.67c-2.78,11.97-2.84,23.29-5.83,34.14-.31,1.13-.81,3.09.71,3.95,2.6,1.49,10.03-4.04,9.5-7.22-1.63-9.82-1.66-19.86-4.38-30.88Z"/>
        <path class="cls-1" d="M279.33,618.62c.49,5.59.59,11.25,2.58,16.61-.98,2.65,3.05,4.86.68,7.63-4.06-.13-8.12-.26-12.17-.39,4.7-9.14-.15-18.21-.19-27.31,0-1.36-.93-1.85-2.07-1.62-4.12.83-9.29,1.52-10.97,5.14-2.62,5.65-3.37,12.18-3.23,18.57.02,1,1.38,1.96,2.12,2.94.07.78.14,1.56.21,2.35,0,0-.1.09-.1.09-3.72-.12-8.44,1.13-10.92-.68-3.26-2.38,1.53-6.23,1.23-9.86-.3-3.59.53-7.27.86-10.91.27-.31.32-.66.17-1.04,2-6.64,2.65-13.44,2.39-20.35,2.56-13.76,5.39-27.48,5.06-41.58,6.23.08,12.46.17,18.69.25-2.44,8.91.03,17.6,1.17,26.35.88,5.84,1.77,11.68,2.65,17.53-.51,5.56.73,10.92,1.85,16.3ZM261.12,588.18c-2.39,5.63-.81,11.97-3.45,17.53,2.37,1.09,4.28.76,6.26-.29,4.35-2.31,5.26-7.86,2.49-15.93.39-5.99-1.34-11.62-2.54-17.42-1.39,2.71-2.3,5.36-2.64,8.08-.34,2.64-.1,5.35-.12,8.04Z"/>
        <path class="cls-1" d="M316.77,637.67c1.27-1.83,1.25-3.93,1.25-6.02-.08-21.72-.16-43.43-.3-65.15,0-.75-.55-1.49-.84-2.24,1.07-2.13-2.97-4.13-.16-6.31,7.46.23,14.92.47,22.38.7,0,0-.07-.04-.07-.04.55.25,1.09.51,1.64.76,4,2.83,6.88,6.41,7.71,11.39-.02,20.18-.05,40.35-.07,60.53-2.33,6.64-6.63,10.92-13.93,11.57-2.52-.65-5.05-.65-7.57-.02-.84,0-1.68.01-2.52.02-1.67-.58-3.36-.53-5.05-.07-.83,0-1.67-.02-2.5-.02-.3-.33-.68-.47-1.12-.42.39-1.56.78-3.12,1.16-4.68ZM326.89,567.32c-.35.68-1.01,1.37-1.01,2.05-.14,20.52-.22,41.05-.29,61.57,0,1.04.07,2.11,1.31,2.54,11.75,1.34,12.8.52,12.88-11.02.1-14.82.03-29.64.05-44.46.01-10.04-2.34-12-12.93-10.68Z"/>
        <path class="cls-1" d="M212.6,642.29c-2.26-1.6-4.52-3.19-6.77-4.79-2.62-5.16-1.47-11.4-5.49-16.9h13.64c.13,3.08-3.84,6.09-.93,9.53.49,4.66,4.15,4.01,7.09,3.91,3.19-.1,4.77-2.35,4.89-5.41.11-2.89-.07-5.8-.12-8.69.07-2.3.12-4.6.21-6.91.18-5.02-1.27-7.76-7.26-7.26-7.56.62-14.14-6.93-14.42-15.81-.18-5.45-.17-10.92.02-16.37.36-10.23,6.26-15.69,16.39-15.39,8.81.26,13.66,5.9,13.63,15.86,0,2.1-.62,4.44.11,6.25,2.1,5.22-.7,5.46-4.63,5.52-4.22.06-7.3.09-4.32-5.61,1.06-2.03.53-4.95.5-7.46-.03-2.66-.77-5.33-3.84-5.68-3.11-.35-6.96-1.62-8.19,3.21-1.8,7.48-2.08,14.95-.02,22.43.06,4.37,3.15,4.52,6.37,4.69,9.36.5,13.39,4.41,14.19,13.64.02,3.39.03,6.79.05,10.18-.26,4.57-.51,9.15-.77,13.72-3.3,4.48-7.31,7.76-13.23,7.82-.85,0-1.7.01-2.55.02-.42,0-.84,0-1.25.01-1.1-.18-2.2-.36-3.3-.53Z"/>
        <path class="cls-1" d="M685.67,592.62c.74,3.71,3.11,4.81,6.74,4.86,9.52.13,13.5,4.35,13.53,13.82.01,5.63.11,11.26,0,16.88-.18,8.99-4.5,14.04-12.1,14.38-10.35.47-16.7-4.2-17.55-13.35-.27-2.94-.78-5.66-3.06-8.7h13.61c-2.22,4.74-5.31,10.24,1.87,13.13,3.64,1.47,8.19,1.62,8.85-4.42.74-.77.99-1.58.23-2.49.35-.36.34-.7-.04-1.02,1.07-5.08,1.35-10.15-.14-15.2.16-3.58-1.7-4.67-5.08-4.64-7.9.08-13.49-3.34-15.78-11.26.05-8.78.1-17.57.15-26.36,4.34-8.96,10.74-12.14,19.88-9.67,5.47,1.48,8.02,5.82,9.09,10.85.93,4.38-.92,9.09,1.5,13.44.75,1.35-1.14,2.56-2,2.63-3.06.25-6.38,1.16-9.18-.46-2.52-1.46.4-2.48.77-3.76,1.11-3.86.88-7.9.19-11.79-.35-2-2.39-2.64-4.47-2.72-3.08-.12-5.97-.1-6.97,3.65-.93.78-1.11,1.75-.73,2.86-.02,1.25-.05,2.5-.07,3.76-.59,3.37-.67,6.74.09,10.11.01.83.02,1.67.04,2.5-.51,1.14-.36,2.14.64,2.96Z"/>
        <path class="cls-1" d="M419.02,564.11c1.62-2.47-3.99-3.18-1.44-5.88,9.17.62,18.6-1.2,27.39,2.94,3.72,4.27,6.47,8.92,6.43,14.84-.03,4.13.14,8.26.22,12.4-.54,4.69-3.44,8.34-5.43,12.4-5.8,2.96-12.32,4.51-17.4,8.89-1.07,8.49-1.11,16.98.01,25.47-.05,3.1,3.12,7.06-3,8.33-6.71,1.4-8.36.03-6.84-6.57.46-1.99,1.21-4.04.32-6.14.2-.59.57-1.17.57-1.76.05-20.89.08-41.78.05-62.68,0-.75-.58-1.49-.89-2.24ZM442.55,585.89c0-.41-.02-.83-.03-1.25.25-3.79.67-7.58-.26-11.34.28-.72.05-1.23-.63-1.55-2.85-5.35-7.63-5.22-12.64-4.45-1.56,10.08-.96,20.18-.3,30.28,5.15,1.08,8.48-1.88,11.61-5.26,1.66-.8,2.9-1.83,2.21-3.94.01-.83.03-1.66.04-2.49Z"/>
        <path class="cls-1" d="M378.5,642.81c-1.28,0-2.57.01-3.85.02-2.5-.56-5.01-.61-7.52-.03-.84,0-1.68,0-2.52,0-1.69-.48-3.37-.55-5.07-.02-.83,0-1.65-.01-2.48-.02-.41-.06-.82-.11-1.23-.17,3.32-25.36.96-50.84,1.46-76.25.04-1.81-.13-3.5-1.84-5.04-1.74-1.57-.56-2.94,1.58-3.29,7.14.08,14.28.15,21.42.23,1.64.93,3.33,1.77,4.89,2.82,1.57,1.05,3.57,2.52,1.88,4.46-1.45,1.68-3.21,5.01-5.99,3.11-3.97-2.72-8-1.56-12.08-1.54-.37.15-1.06.29-1.06.45-.17,11.99-.32,23.97-.36,35.96,0,1.81.96,2.76,2.81,1.41,3.32-.27,5.77-3.24,9.26-3.07q.99,8.27-10.95,13.8c-2.32,4.05-.56,8.47-1.18,12.66-.79,5.34,1.22,7.3,6.46,5.72,2.48.06,4.95.17,7.43.16,2.73-.01,5.1-.44,5.22,3.88.12,4.22-1.76,4.88-5.05,4.76-.41,0-.83,0-1.24,0Z"/>
        <path class="cls-1" d="M507.03,558.18c7.15-.05,14.31-.1,21.46-.16,1.71.68,3.53,1.18,5.1,2.1,1.88,1.1,4.27,2.81,2.86,5.09-1.25,2.03-2.92,5.5-6.66,2.98-1.81-2.35-4.22-1.11-6.43-1.09-1.65.02-3.3.04-4.94.07-1.48.17-1.4.82-.52,1.72.02.81.04,1.62.06,2.43-1.29,10.99-1.27,21.99-.12,32.99l-.06.42.39.17c.52,1.37,1.11.62,1.7.06,1.58-.25,3.11-.57,3.73-2.34,2.14,1.1,4.08-2.13,6.25-.3-.02.83-.03,1.65-.05,2.48-.47,2.63.34,5.8-3.05,7.18-4.54,2.04-10.41,1.85-9.98,9.93.72,13.73.19,13.75,14.17,13.04,2.13-.21,5.11-2.56,5.12,2.26.01,3.08.41,5.61-4.34,5.35-8.15-.45-16.35-.11-24.53-.11-.91-2.62,2.07-4.55,1.25-7.15.31-2.26.87-4.52.89-6.78.14-17.4.22-34.81.22-52.21,0-2.89.46-5.89-.91-8.66,1.88-3.55-3.91-5.83-1.58-9.45Z"/>
        <path class="cls-1" d="M122.51,631.48c2.16,5.48,6.51,3.71,10.41,3.03,1.58-.28,3.04-1.19,4.57-1.76,3.21-1.18,5.84.91,6.91,2.96,1.2,2.28-1.79,3.73-3.65,4.88-10.73,6.62-22.35,3.87-27-6.07-1.06-2.26-1.01-4.45-1.02-6.67-.08-17.85-.26-35.71.02-53.56.16-10.35,2.98-17.07,16.12-15.96,4.32.36,8.95-.7,12.66,2.19,1.46,1.14,5.03,2.37,2.8,5.03-1.53,1.83-3.52,4.96-7.24,2.59-3.8-2.41-8.1-1.27-12.22-.93-1.7.14-2.61,1.18-2.59,2.94-1.24,1.38-1.11,3.07-1.11,4.74-.01,17.11-.03,34.22-.03,51.34,0,1.86-.22,3.8,1.37,5.26Z"/>
        <path class="cls-1" d="M591.46,642.85c-1.7-.04-3.4-.09-5.1-.13-.15-.41-.44-.57-.87-.48-.37-2.34,2.04-4.12,1.3-6.53,1.14-.91,1.05-2.22,1.05-3.45.02-21.37.02-42.74,0-64.11,0-1.43.13-2.98-1.26-4.01-.34-1.77-.67-3.55-1.01-5.3.63-.19,1.02-.41,1.41-.41,3.35.03,7.27-.98,9.91.42,3.88,2.06-.76,5.15-.71,8.09.37,20.97.24,41.96.07,62.93-.03,3.37,1.01,4.4,4.27,4.14,2.67-.22,5.31-.1,7.89-1.19,3.87-1.64,7.54-.19,8.87,3.21,1.44,3.68-3.33,3.84-5.28,5.57-.97.86-2.75.81-4.16,1.17-5.46-.59-10.92-.63-16.38.07Z"/>
        <path class="cls-1" d="M545.69,640.11c1.56-2.13,1.88-4.53,1.87-7.12-.06-21.37-.02-42.73-.06-64.1,0-1.64-.51-3.28-.53-4.92-.03-1.84-3.28-4.41-.38-5.22,3.46-.97,7.61-.69,11.12.28,1.83.5-1.27,3.16-.54,5.03-1.49,1.16-1.21,2.66-.77,4.18-.02,19.75-.04,39.51-.06,59.26,0,.42,0,.84-.01,1.27,0,.84,0,1.68,0,2.51-.24,1.06-.38,2.46.92,2.51,4.08.17,8.28,1.43,12.19-.87,3.47-.97,7.33.34,7.73,3.19.55,4.01-4.1,4.97-7.15,6.52-6.72-.22-13.44-.57-20.15.24-1.27-.09-2.53-.19-3.8-.28-.13-.82-.25-1.64-.38-2.47Z"/>
        <path class="cls-1" d="M744.93,593.57c4.74.2,7.99,1.67,7.96,6.86-.03,5.25-4.05,6.75-7.95,7.78-2.66.7-7.31-4.84-7.15-8.01.24-4.68,3.31-6.24,7.14-6.63Z"/>
        <path class="cls-1" d="M70.64,593.58c4.93-.74,6.15,3.78,6.11,7.19-.05,3.85-2.65,7.8-7.34,7.49-4.3-.29-6.95-3.53-7.07-7.86-.13-4.92,2.97-6.93,8.3-6.82Z"/>
        <path class="cls-1" d="M586.59,564.14c1.39,1.03,1.26,2.58,1.26,4.01.02,21.37.01,42.74,0,64.11,0,1.24.1,2.54-1.05,3.45-.84-23.86-.41-47.71-.21-71.57Z"/>
        <path class="cls-1" d="M122.51,631.48c-1.59-1.46-1.37-3.4-1.37-5.26,0-17.11.02-34.22.03-51.34,0-1.67-.13-3.36,1.11-4.74.08,20.45.15,40.89.23,61.34Z"/>
        <path class="cls-1" d="M368.55,604.9c-1.85,1.35-2.82.4-2.81-1.41.04-11.99.19-23.97.36-35.96,0-.15.69-.3,1.06-.45,0,10.43-.03,20.86-.02,31.28,0,2.26-.38,4.64,1.4,6.53Z"/>
        <path class="cls-1" d="M676.9,568.26c-.05,8.79-.1,17.57-.15,26.36-1.77-8.8-1.96-17.58.15-26.36Z"/>
        <path class="cls-1" d="M372.14,634.01c-5.24,1.58-7.25-.38-6.46-5.72.62-4.19-1.14-8.61,1.18-12.66.11,3.28.56,6.61.23,9.85-.43,4.3,1,7.09,5.05,8.53Z"/>
        <path class="cls-1" d="M213.09,592.73c-2.06-7.48-1.77-14.96.02-22.43,0,7.48-.02,14.96-.02,22.43Z"/>
        <path class="cls-1" d="M549.87,642.86c6.71-.81,13.43-.46,20.15-.24-6.69,2.06-13.42,1.68-20.15.24Z"/>
        <path class="cls-1" d="M654.44,558.05c-5.88.57-11.76.64-17.63-.11,5.89-1.62,11.76-1.69,17.63.11Z"/>
        <path class="cls-1" d="M591.46,642.85c5.46-.7,10.92-.66,16.38-.07-5.45,1.71-10.91,1.71-16.38.07Z"/>
        <path class="cls-1" d="M697.61,610.51c1.49,5.05,1.21,10.12.14,15.2-1.08-5.06-.79-10.12-.14-15.2Z"/>
        <path class="cls-1" d="M569.44,632.91c-3.91,2.3-8.11,1.04-12.19.87-1.3-.06-1.16-1.46-.92-2.51,4.11,2.63,8.78.83,13.12,1.65Z"/>
        <path class="cls-1" d="M685,587.17c-.76-3.36-.67-6.73-.09-10.11,1.61,3.36,1.56,6.72.09,10.11Z"/>
        <path class="cls-1" d="M556.39,568.22c-.43-1.52-.72-3.01.77-4.18.38,1.51.24,2.93-.77,4.18Z"/>
        <path class="cls-1" d="M684.98,573.31c-.38-1.11-.2-2.08.73-2.86.29,1.09.07,2.05-.73,2.86Z"/>
        <path class="cls-1" d="M685.67,592.62c-1-.82-1.15-1.82-.64-2.96.81.86.98,1.85.64,2.96Z"/>
        <path class="cls-1" d="M585.5,642.24c.43-.09.72.07.87.48-.6.39-.86.19-.87-.48Z"/>
        <path class="cls-1" d="M697.79,626.73c.76.91.51,1.72-.23,2.49.08-.83.15-1.66.23-2.49Z"/>
        <path class="cls-1" d="M556.32,628.75c0-.42,0-.84.01-1.27.11.3.25.59.3.89.02.1-.2.25-.32.37Z"/>
        <path class="cls-1" d="M518.41,567.17c-.17.57-.35,1.14-.52,1.71-.87-.89-.96-1.54.52-1.71Z"/>
        <path class="cls-1" d="M518.15,604.89c.57.02,1.13.04,1.7.06-.59.56-1.18,1.32-1.7-.06Z"/>
      </g>
    </g>
  </g>
</svg>